<svg width="192" height="192" xmlns="http://www.w3.org/2000/svg">
  <defs>
    <linearGradient id="metalGold" x1="0%" y1="0%" x2="0%" y2="100%">
      <stop offset="0%" style="stop-color:#fbbf24;stop-opacity:1" />
      <stop offset="50%" style="stop-color:#f59e0b;stop-opacity:1" />
      <stop offset="100%" style="stop-color:#d97706;stop-opacity:1" />
    </linearGradient>

    <linearGradient id="metalRed" x1="0%" y1="0%" x2="0%" y2="100%">
      <stop offset="0%" style="stop-color:#ef4444;stop-opacity:1" />
      <stop offset="50%" style="stop-color:#dc2626;stop-opacity:1" />
      <stop offset="100%" style="stop-color:#991b1b;stop-opacity:1" />
    </linearGradient>

    <pattern id="parchment" x="0" y="0" width="20" height="20" patternUnits="userSpaceOnUse">
      <rect width="20" height="20" fill="#1c1917"/>
      <circle cx="5" cy="5" r="0.5" fill="#292524" opacity="0.3"/>
      <circle cx="15" cy="10" r="0.5" fill="#292524" opacity="0.3"/>
      <circle cx="10" cy="15" r="0.5" fill="#292524" opacity="0.3"/>
    </pattern>
  </defs>

  <rect width="192" height="192" fill="url(#parchment)" rx="38"/>
  <rect width="192" height="192" fill="none" stroke="url(#metalGold)" stroke-width="6" rx="38"/>
  
  <!-- Coeur FAB centré sans texte -->
  <g transform="translate(96, 96)">
    <path d="M 0 45 L -40 5 Q -50 -10 -50 -25 Q -50 -45 -35 -52 Q -20 -58 0 -40 Q 20 -58 35 -52 Q 50 -45 50 -25 Q 50 -10 40 5 Z" 
          fill="url(#metalRed)" stroke="#991b1b" stroke-width="6"/>
    <ellipse cx="-15" cy="-23" rx="10" ry="16" fill="#ef4444" opacity="0.6"/>
  </g>
</svg>